<svg xmlns="http://www.w3.org/2000/svg" version="1.1" xmlns:xlink="http://www.w3.org/1999/xlink" xmlns:svgjs="http://svgjs.dev/svgjs" width="1000" height="351" viewBox="0 0 1000 351"><g transform="matrix(1,0,0,1,-0.6060606060606233,0.1737406921808713)"><svg viewBox="0 0 396 139" data-background-color="#ffffff" preserveAspectRatio="xMidYMid meet" height="351" width="1000" xmlns="http://www.w3.org/2000/svg" xmlns:xlink="http://www.w3.org/1999/xlink"><g id="tight-bounds" transform="matrix(1,0,0,1,0.2400000000000091,-0.06880329405453267)"><svg viewBox="0 0 395.52 139.13760658810904" height="139.13760658810904" width="395.52"><g><svg viewBox="0 0 691.8788174002548 243.3918959902983" height="139.13760658810904" width="395.52"><g transform="matrix(1,0,0,1,296.3588174002548,11.715565829544076)"><svg viewBox="0 0 395.52 219.96076433121016" height="219.96076433121016" width="395.52"><g><svg viewBox="0 0 395.52 219.96076433121016" height="219.96076433121016" width="395.52"><g><svg viewBox="0 0 395.52 219.96076433121016" height="219.96076433121016" width="395.52"><g transform="matrix(1,0,0,1,0,0)"><svg width="395.52" viewBox="1.7000000476837158 -47 125.59000396728516 69.8499984741211" height="219.96076433121016" data-palette-color="#e56d90"><path d="M16.35 0.4Q9.7 0.4 5.7-2.13 1.7-4.65 1.7-9.85L1.7-9.85Q1.7-12.6 2.65-14.05 3.6-15.5 5.45-15.5L5.45-15.5Q6.8-15.5 7.65-14.8 8.5-14.1 8.5-13L8.5-13Q8.5-12 8.35-11.25L8.35-11.25Q8.35-11.05 8.28-10.55 8.2-10.05 8.2-9.5L8.2-9.5Q8.2-7.25 10.48-6.15 12.75-5.05 16.85-5.05L16.85-5.05Q21.1-5.05 23.5-6.58 25.9-8.1 25.9-10.85L25.9-10.85Q25.9-12.55 24.8-13.78 23.7-15 22.05-15.83 20.4-16.65 17.4-17.85L17.4-17.85Q13.55-19.35 11.13-20.7 8.7-22.05 6.98-24.38 5.25-26.7 5.25-30.15L5.25-30.15Q5.25-33.75 7.18-36.55 9.1-39.35 12.73-40.9 16.35-42.45 21.25-42.45L21.25-42.45Q24.9-42.45 27.95-41.38 31-40.3 32.83-38.1 34.65-35.9 34.65-32.7L34.65-32.7Q34.65-29.55 33.7-27.95 32.75-26.35 30.9-26.35L30.9-26.35Q29.6-26.35 28.73-27.15 27.85-27.95 27.85-29.05L27.85-29.05Q27.85-30 28-30.8L28-30.8Q28.15-32.3 28.15-32.7L28.15-32.7Q28.15-34.8 26.1-35.9 24.05-37 21-37L21-37Q16.7-37 14.43-35.43 12.15-33.85 12.15-31L12.15-31Q12.15-29.1 13.33-27.75 14.5-26.4 16.25-25.5 18-24.6 21.15-23.35L21.15-23.35Q24.95-21.8 27.25-20.55 29.55-19.3 31.18-17.15 32.8-15 32.8-11.85L32.8-11.85Q32.8-5.95 28.33-2.78 23.85 0.4 16.35 0.4L16.35 0.4ZM56-11.15Q56.65-11.15 57.02-10.55 57.4-9.95 57.4-8.9L57.4-8.9Q57.4-6.9 56.45-5.8L56.45-5.8Q54.3-3.15 51.77-1.45 49.25 0.25 46.05 0.25L46.05 0.25Q41.65 0.25 39.52-3.75 37.4-7.75 37.4-14.1L37.4-14.1Q37.4-20.2 38.97-28 40.55-35.8 43.62-41.4 46.7-47 50.95-47L50.95-47Q53.35-47 54.72-44.78 56.1-42.55 56.1-38.4L56.1-38.4Q56.1-32.45 52.8-24.6 49.5-16.75 43.85-9.05L43.85-9.05Q44.2-7 45-6.13 45.8-5.25 47.1-5.25L47.1-5.25Q49.15-5.25 50.7-6.43 52.25-7.6 54.65-10.45L54.65-10.45Q55.25-11.15 56-11.15L56-11.15ZM49.85-42.05Q48.7-42.05 47.25-37.9 45.8-33.75 44.7-27.6 43.6-21.45 43.5-15.8L43.5-15.8Q47.05-21.65 49.15-27.53 51.25-33.4 51.25-38.25L51.25-38.25Q51.25-42.05 49.85-42.05L49.85-42.05ZM58.45 0.25Q56.2 0.25 54.77-1.83 53.35-3.9 53.35-7L53.35-7Q53.35-10.75 53.85-13.88 54.35-17 55.5-20.5L55.5-20.5Q56-22 56.9-22.65 57.8-23.3 59.75-23.3L59.75-23.3Q60.85-23.3 61.27-22.95 61.7-22.6 61.7-21.9L61.7-21.9Q61.7-21.5 61.15-19.2L61.15-19.2Q60.65-17.35 60.35-15.85L60.35-15.85Q59.35-10.6 59.35-8.85L59.35-8.85Q59.35-7.8 59.6-7.38 59.85-6.95 60.4-6.95L60.4-6.95Q61.15-6.95 62.27-8.45 63.4-9.95 64.67-13 65.95-16.05 67.15-20.5L67.15-20.5Q67.55-22 68.37-22.65 69.2-23.3 70.85-23.3L70.85-23.3Q72-23.3 72.45-23.03 72.9-22.75 72.9-22L72.9-22Q72.9-20.75 71.65-15.15L71.65-15.15Q70.25-8.75 70.25-7.25L70.25-7.25Q70.25-6.3 70.65-5.78 71.05-5.25 71.7-5.25L71.7-5.25Q72.7-5.25 74.07-6.48 75.45-7.7 77.75-10.45L77.75-10.45Q78.35-11.15 79.1-11.15L79.1-11.15Q79.75-11.15 80.12-10.55 80.5-9.95 80.5-8.9L80.5-8.9Q80.5-6.9 79.55-5.8L79.55-5.8Q77.4-3.15 74.92-1.45 72.45 0.25 69.3 0.25L69.3 0.25Q66.9 0.25 65.77-1.6 64.65-3.45 64.65-6.8L64.65-6.8Q63.8-3.4 62.1-1.58 60.4 0.25 58.45 0.25L58.45 0.25ZM79.99 0.25Q78.09 0.25 77.32-1.75 76.54-3.75 76.54-8.15L76.54-8.15Q76.54-14.65 78.39-20.5L78.39-20.5Q78.84-21.95 79.87-22.63 80.89-23.3 82.74-23.3L82.74-23.3Q83.74-23.3 84.14-23.05 84.54-22.8 84.54-22.1L84.54-22.1Q84.54-21.3 83.79-18.5L83.79-18.5Q83.29-16.5 82.99-15 82.69-13.5 82.49-11.3L82.49-11.3Q84.14-15.6 86.19-18.3 88.24-21 90.22-22.15 92.19-23.3 93.84-23.3L93.84-23.3Q97.09-23.3 97.09-20.05L97.09-20.05Q97.09-19.4 96.64-16.9L96.64-16.9Q96.24-14.9 96.24-14.4L96.24-14.4Q96.24-12.65 97.49-12.65L97.49-12.65Q98.89-12.65 101.09-14.85L101.09-14.85Q101.74-15.5 102.44-15.5L102.44-15.5Q103.09-15.5 103.47-14.93 103.84-14.35 103.84-13.4L103.84-13.4Q103.84-11.55 102.84-10.5L102.84-10.5Q101.44-9.05 99.57-8.03 97.69-7 95.59-7L95.59-7Q92.94-7 91.57-8.35 90.19-9.7 90.19-12L90.19-12Q90.19-12.75 90.34-13.5L90.34-13.5Q90.44-14.5 90.44-14.85L90.44-14.85Q90.44-15.65 89.89-15.65L89.89-15.65Q89.14-15.65 87.92-13.98 86.69-12.3 85.49-9.55 84.29-6.8 83.54-3.75L83.54-3.75Q82.99-1.4 82.27-0.58 81.54 0.25 79.99 0.25L79.99 0.25ZM125.89-11.15Q126.54-11.15 126.92-10.55 127.29-9.95 127.29-8.9L127.29-8.9Q127.29-6.9 126.34-5.8L126.34-5.8Q124.19-3.15 121.72-1.45 119.24 0.25 116.09 0.25L116.09 0.25Q113.44 0.25 111.79-1.65L111.79-1.65Q108.94 0.2 105.84 0.25L105.84 0.25Q105.19 9.9 102.89 16.38 100.59 22.85 96.14 22.85L96.14 22.85Q93.44 22.85 92.14 20.9 90.84 18.95 90.84 15.5L90.84 15.5Q90.84 10.6 93.09 4.08 95.34-2.45 100.04-10.3L100.04-10.3Q100.04-17.6 99.94-20.45L99.94-20.45Q99.89-21.9 101.09-22.75 102.29-23.6 104.09-23.6L104.09-23.6Q105.14-23.6 105.62-23.18 106.09-22.75 106.14-21.5L106.14-21.5Q106.14-20.25 106.19-19.65L106.19-19.65Q107.79-21.65 109.34-22.53 110.89-23.4 112.64-23.4L112.64-23.4Q115.44-23.4 117.22-21.15 118.99-18.9 118.99-15.25L118.99-15.25Q118.99-12.6 118.14-10.1 117.29-7.6 115.79-5.55L115.79-5.55Q116.84-5.25 117.54-5.25L117.54-5.25Q119.19-5.25 120.69-6.45 122.19-7.65 124.54-10.45L124.54-10.45Q125.14-11.15 125.89-11.15L125.89-11.15ZM106.09-4.55Q107.89-4.95 109.42-6.53 110.94-8.1 111.84-10.43 112.74-12.75 112.74-15.3L112.74-15.3Q112.74-16.8 112.14-17.57 111.54-18.35 110.54-18.35L110.54-18.35Q108.74-18.35 106.19-14.55L106.19-14.55Q106.14-12.35 106.14-8.1L106.14-8.1Q106.14-5.8 106.09-4.55L106.09-4.55ZM96.54 17.95Q97.89 17.95 98.79 12.08 99.69 6.2 99.94-2.55L99.94-2.55Q97.79 2.45 96.54 7 95.29 11.55 95.29 14.65L95.29 14.65Q95.29 16.25 95.67 17.1 96.04 17.95 96.54 17.95L96.54 17.95Z" opacity="1" transform="matrix(1,0,0,1,0,0)" class="undefined-text-0" data-fill-palette-color="primary" id="text-0"></path></svg></g></svg></g></svg></g></svg></g><g><svg viewBox="0 0 244.43136 243.3918959902983" height="243.3918959902983" width="244.43136"><g><svg xmlns="http://www.w3.org/2000/svg" xmlns:xlink="http://www.w3.org/1999/xlink" version="1.1" x="0" y="0" viewBox="1.8959999084472656 3.070995330810547 95.23600769042969 94.83100891113281" enable-background="new 0 0 100 100" xml:space="preserve" height="243.3918959902983" width="244.43136" class="icon-icon-0" data-fill-palette-color="accent" id="icon-0"><path d="M94.919 14.367C93.992 13.906 71.942 3.071 49.396 3.071 26.849 3.071 4.8 13.906 3.872 14.367L1.896 15.35l0.003 2.716c0.118 11.369 4.504 22.218 11.963 30.743C13.812 49.39 14 49.975 14 50.57v21.849c0 14.051 11.448 25.483 25.5 25.483 14.051 0 25.5-11.433 25.5-25.483v-9.856c18-6.364 31.864-24.212 32.132-44.348l-0.116-2.864L94.919 14.367zM61 47.874c-1.941 0-4 1.574-4 3.515v21.03c0 10.176-7.825 18.453-18 18.453-10.175 0-18-8.277-18-18.453V50.57c0-7.154 5.422-12.757 12.613-12.757 2.146 0 3.982 0.634 5.792 1.74C37.443 42.689 36 46.449 36 50.541v13.15c0 1.941 1.559 3.515 3.5 3.515s3.5-1.573 3.5-3.515v-13.15c0-7.398 5.486-12.977 12.5-12.977S68 43.156 68 50.57v2.778c-1 0.598-2 1.135-3 1.624v-3.584C65 49.448 62.941 47.874 61 47.874zM74.977 48.737c-0.868-10.343-9.004-18.203-19.246-18.203-4.314 0-8.243 1.408-11.426 3.791-3.131-2.242-7.02-3.542-10.902-3.542-7.427 0-13.764 3.88-17.17 9.751-4.23-6.096-6.73-13.231-7.148-20.729 5.83-2.587 23.225-9.611 40.311-9.611 17.087 0 34.483 7.024 40.312 9.611C89.067 31.251 83.525 41.682 74.977 48.737z" data-fill-palette-color="accent"></path></svg></g></svg></g></svg></g><defs></defs></svg><rect width="395.52" height="139.13760658810904" fill="none" stroke="none" visibility="hidden"></rect></g></svg></g></svg>