<?xml version="1.0" encoding="UTF-8" standalone="no"?>
<svg
   version="1.1"
   width="353"
   height="351"
   viewBox="0 0 353 351"
   id="svg136"
   xmlns="http://www.w3.org/2000/svg"
   xmlns:svg="http://www.w3.org/2000/svg">
  <defs
     id="defs140" />
  <g
     transform="translate(-0.60606061,0.17374069)"
     id="g134">
    <svg
       viewBox="0 0 396 139"
       data-background-color="#ffffff"
       preserveAspectRatio="xMidYMid"
       height="351"
       width="1000"
       version="1.1"
       id="svg132">
      <g
         id="tight-bounds"
         transform="translate(0.24,-0.06880329)">
        <svg
           viewBox="0 0 395.52 139.13761"
           height="139.1376"
           width="395.51999"
           version="1.1"
           id="svg127">
          <g
             id="g123">
            <svg
               viewBox="0 0 691.87882 243.3919"
               height="139.1376"
               width="395.51999"
               version="1.1"
               id="svg121">
              <g
                 transform="translate(296.35882,11.715566)"
                 id="g110">
                <svg
                   viewBox="0 0 395.52 219.96076"
                   height="219.96077"
                   width="395.51999"
                   version="1.1"
                   id="svg108">
                  <g
                     id="g106">
                    <svg
                       viewBox="0 0 395.52 219.96076"
                       height="219.96077"
                       width="395.51999"
                       version="1.1"
                       id="svg104">
                      <g
                         id="g102">
                        <svg
                           viewBox="0 0 395.52 219.96076"
                           height="219.96077"
                           width="395.51999"
                           version="1.1"
                           id="svg100">
                          <g
                             id="g98">
                            <svg
                               width="395.51999"
                               viewBox="1.7 -47 125.59 69.849998"
                               height="219.96077"
                               data-palette-color="#e56d90"
                               version="1.1"
                               id="svg96" />
                          </g>
                        </svg>
                      </g>
                    </svg>
                  </g>
                </svg>
              </g>
              <g
                 id="g119">
                <svg
                   viewBox="0 0 244.43136 243.3919"
                   height="243.39189"
                   width="244.43137"
                   version="1.1"
                   id="svg117">
                  <g
                     id="g115">
                    <svg
                       version="1.1"
                       x="0"
                       y="0"
                       viewBox="1.8959999 3.0709953 95.236008 94.831009"
                       enable-background="new 0 0 100 100"
                       xml:space="preserve"
                       height="243.39189"
                       width="244.43137"
                       class="icon-icon-0"
                       data-fill-palette-color="accent"
                       id="icon-0"><path
                         d="M 94.919,14.367 C 93.992,13.906 71.942,3.071 49.396,3.071 26.849,3.071 4.8,13.906 3.872,14.367 L 1.896,15.35 1.899,18.066 C 2.017,29.435 6.403,40.284 13.862,48.809 13.812,49.39 14,49.975 14,50.57 V 72.419 C 14,86.47 25.448,97.902 39.5,97.902 53.551,97.902 65,86.469 65,72.419 V 62.563 C 83,56.199 96.864,38.351 97.132,18.215 L 97.016,15.351 Z M 61,47.874 c -1.941,0 -4,1.574 -4,3.515 v 21.03 c 0,10.176 -7.825,18.453 -18,18.453 -10.175,0 -18,-8.277 -18,-18.453 V 50.57 c 0,-7.154 5.422,-12.757 12.613,-12.757 2.146,0 3.982,0.634 5.792,1.74 C 37.443,42.689 36,46.449 36,50.541 v 13.15 c 0,1.941 1.559,3.515 3.5,3.515 1.941,0 3.5,-1.573 3.5,-3.515 v -13.15 c 0,-7.398 5.486,-12.977 12.5,-12.977 7.014,0 12.5,5.592 12.5,13.006 v 2.778 c -1,0.598 -2,1.135 -3,1.624 v -3.584 c 0,-1.94 -2.059,-3.514 -4,-3.514 z m 13.977,0.863 C 74.109,38.394 65.973,30.534 55.731,30.534 c -4.314,0 -8.243,1.408 -11.426,3.791 -3.131,-2.242 -7.02,-3.542 -10.902,-3.542 -7.427,0 -13.764,3.88 -17.17,9.751 -4.23,-6.096 -6.73,-13.231 -7.148,-20.729 5.83,-2.587 23.225,-9.611 40.311,-9.611 17.087,0 34.483,7.024 40.312,9.611 -0.641,11.446 -6.183,21.877 -14.731,28.932 z"
                         fill="#e56d90"
                         data-fill-palette-color="accent"
                         id="path112" /></svg>
                  </g>
                </svg>
              </g>
            </svg>
          </g>
          <defs
             id="defs125" />
        </svg>
        <rect
           width="395.51999"
           height="139.1376"
           fill="none"
           stroke="none"
           visibility="hidden"
           id="rect129"
           x="0"
           y="0" />
      </g>
    </svg>
  </g>
</svg>
